<svg width="165" height="27" viewBox="0 0 165 27" fill="none" xmlns="http://www.w3.org/2000/svg">
<path d="M0 12.1837V0.188477H2.54776V12.1837H0Z" fill="black"/>
<path d="M16.2484 12.1837H13.0103L7.78323 3.10937H7.70926C7.81336 4.71202 7.86543 5.85519 7.86543 6.53892V12.1837H5.58887V0.188477H8.80235L14.0212 9.17263H14.0787C13.9966 7.61374 13.9555 6.51159 13.9555 5.86615V0.188477H16.2485L16.2484 12.1837Z" fill="black"/>
<path d="M26.3573 8.85306C26.3573 9.93608 25.9655 10.7893 25.182 11.4129C24.404 12.0365 23.3191 12.3483 21.9274 12.3483C20.6453 12.3483 19.5111 12.1076 18.5249 11.6262V9.26329C19.3358 9.6243 20.0207 9.87864 20.5796 10.0263C21.1439 10.174 21.6589 10.2478 22.1247 10.2478C22.6835 10.2478 23.1109 10.1412 23.4068 9.92786C23.7081 9.71454 23.8588 9.3973 23.8588 8.97612C23.8588 8.74092 23.7931 8.53307 23.6616 8.35257C23.5301 8.1666 23.3355 7.98883 23.078 7.81927C22.826 7.6497 22.3082 7.37894 21.5247 7.007C20.7905 6.66241 20.2399 6.33147 19.8728 6.01422C19.5057 5.69697 19.2125 5.32775 18.9934 4.90658C18.7742 4.48541 18.6646 3.99314 18.6646 3.42975C18.6646 2.36861 19.0235 1.53448 19.7413 0.927327C20.4645 0.320183 21.4617 0.0166016 22.7329 0.0166016C23.3575 0.0166016 23.9519 0.0904424 24.5163 0.238124C25.0861 0.385811 25.6806 0.593659 26.2998 0.861678L25.4779 2.839C24.8368 2.57645 24.3053 2.39322 23.8835 2.2893C23.467 2.18537 23.0561 2.13342 22.6507 2.13342C22.1685 2.13342 21.7986 2.24555 21.5411 2.46981C21.2836 2.69407 21.1549 2.98669 21.1549 3.34769C21.1549 3.57196 21.2069 3.76888 21.311 3.93844C21.4151 4.10253 21.5795 4.2639 21.8041 4.42253C22.0343 4.57568 22.574 4.85464 23.4232 5.2594C24.5464 5.79544 25.3162 6.33422 25.7327 6.87573C26.1491 7.41177 26.3573 8.07088 26.3573 8.85306Z" fill="black"/>
<path d="M33.1377 12.1837H30.59V2.3053H27.3271V0.188477H36.4005V2.3053H33.1377V12.1837Z" fill="black"/>
<path d="M38.2329 12.1837V0.188477H40.7807V12.1837H38.2329Z" fill="black"/>
<path d="M48.4571 12.1837H45.9093V2.3053H42.6465V0.188477H51.7199V2.3053H48.4571V12.1837Z" fill="black"/>
<path d="M63.3326 0.188477V7.95013C63.3326 8.83624 63.1326 9.61293 62.7326 10.2802C62.3381 10.9476 61.7656 11.459 61.0149 11.8145C60.2643 12.1701 59.3767 12.3479 58.3521 12.3479C56.807 12.3479 55.607 11.954 54.7523 11.1664C53.8976 10.3732 53.4702 9.29024 53.4702 7.91732V0.188477H56.0098V7.53169C56.0098 8.45609 56.1961 9.13435 56.5686 9.56646C56.9412 9.99858 57.5576 10.2146 58.4178 10.2146C59.2507 10.2146 59.8533 9.99858 60.2259 9.56646C60.604 9.12888 60.793 8.44516 60.793 7.51529V0.188477H63.3326Z" fill="black"/>
<path d="M70.9102 12.1837H68.3624V2.3053H65.0996V0.188477H74.173V2.3053H70.9102V12.1837Z" fill="black"/>
<path d="M86.912 6.16993C86.912 8.15546 86.4189 9.68152 85.4327 10.7481C84.4464 11.8147 83.0328 12.3481 81.1919 12.3481C79.3509 12.3481 77.9373 11.8147 76.951 10.7481C75.9648 9.68152 75.4717 8.14999 75.4717 6.15352C75.4717 4.15705 75.9648 2.63369 76.951 1.58349C77.9427 0.527824 79.3618 0 81.2083 0C83.0548 0 84.4656 0.530557 85.4409 1.5917C86.4216 2.65283 86.912 4.17893 86.912 6.16993ZM78.1427 6.16993C78.1427 7.51003 78.3975 8.5192 78.9071 9.19745C79.4166 9.8757 80.1782 10.2148 81.1919 10.2148C83.2246 10.2148 84.241 8.86654 84.241 6.16993C84.241 3.46785 83.2301 2.11679 81.2083 2.11679C80.1947 2.11679 79.4303 2.45865 78.9153 3.14238C78.4002 3.82064 78.1427 4.82983 78.1427 6.16993Z" fill="black"/>
<path d="M96.2977 12.1837H93.791V0.188477H100.678V2.27249H96.2977V5.36566H100.374V7.44144H96.2977V12.1837Z" fill="black"/>
<path d="M109.949 12.1837H103.029V0.188477H109.949V2.27249H105.577V4.90618H109.645V6.99019H105.577V10.0833H109.949V12.1837Z" fill="black"/>
<path d="M122.433 6.07126C122.433 8.04586 121.869 9.55826 120.74 10.6085C119.617 11.6587 117.992 12.1837 115.866 12.1837H112.464V0.188477H116.236C118.198 0.188477 119.721 0.705396 120.806 1.73919C121.891 2.77298 122.433 4.21701 122.433 6.07126ZM119.787 6.13688C119.787 3.56061 118.647 2.27249 116.368 2.27249H115.012V10.0833H116.105C118.559 10.0833 119.787 8.76785 119.787 6.13688Z" fill="black"/>
<path d="M131.843 12.1837H124.923V0.188477H131.843V2.27249H127.471V4.90618H131.539V6.99019H127.471V10.0833H131.843V12.1837Z" fill="black"/>
<path d="M136.906 5.51333H137.728C138.533 5.51333 139.128 5.37931 139.511 5.1113C139.895 4.84328 140.087 4.42211 140.087 3.84778C140.087 3.27893 139.89 2.87415 139.495 2.63348C139.106 2.39281 138.501 2.27249 137.679 2.27249H136.906V5.51333ZM136.906 7.58091V12.1837H134.358V0.188477H137.859C139.492 0.188477 140.7 0.486591 141.484 1.0828C142.267 1.67354 142.659 2.57331 142.659 3.78213C142.659 4.48773 142.465 5.11678 142.076 5.66923C141.687 6.21621 141.136 6.64558 140.424 6.95735C142.232 9.65396 143.41 11.3961 143.958 12.1837H141.131L138.262 7.58091H136.906Z" fill="black"/>
<path d="M152.793 12.1841L151.922 9.32889H147.541L146.67 12.1841H143.925L148.166 0.139648H151.28L155.538 12.1841H152.793ZM151.313 7.1957C150.508 4.60849 150.053 3.14531 149.949 2.80618C149.85 2.46705 149.779 2.19902 149.735 2.00211C149.555 2.70224 149.037 4.43345 148.182 7.1957H151.313Z" fill="black"/>
<path d="M157.042 12.1837V0.188477H159.589V10.0833H164.463V12.1837H157.042Z" fill="black"/>
<path d="M1.14682 22.8177V26.6647H0.0693359V17.4141H2.61092C3.74757 17.4141 4.58634 17.6313 5.12719 18.0658C5.67227 18.5003 5.94481 19.1541 5.94481 20.0273C5.94481 21.2506 5.32365 22.0774 4.08138 22.5076L6.59764 26.6647H5.32367L3.07995 22.8177H1.14682ZM1.14682 21.8939H2.6236C3.38418 21.8939 3.94196 21.7441 4.29689 21.4446C4.65183 21.1409 4.82927 20.6874 4.82927 20.0842C4.82927 19.4726 4.6476 19.0318 4.28422 18.7618C3.92505 18.4918 3.34615 18.3569 2.54754 18.3569H1.14682V21.8939Z" fill="black"/>
<path d="M8.99978 26.6644H7.94765V19.7296H8.99978V26.6644ZM7.85889 17.8503C7.85889 17.6099 7.91807 17.4348 8.03638 17.3251C8.15469 17.2112 8.30258 17.1543 8.48005 17.1543C8.64907 17.1543 8.79483 17.2112 8.91737 17.3251C9.03991 17.439 9.10118 17.6141 9.10118 17.8503C9.10118 18.0865 9.03991 18.2637 8.91737 18.3818C8.79483 18.4957 8.64907 18.5526 8.48005 18.5526C8.30258 18.5526 8.15469 18.4957 8.03638 18.3818C7.91807 18.2637 7.85889 18.0865 7.85889 17.8503Z" fill="black"/>
<path d="M17.214 23.1912C17.214 24.3217 16.9288 25.2054 16.3584 25.8423C15.788 26.4751 14.9999 26.7914 13.9943 26.7914C13.3731 26.7914 12.8217 26.6459 12.34 26.3549C11.8583 26.0638 11.4865 25.6462 11.2245 25.102C10.9625 24.5579 10.8315 23.9209 10.8315 23.1912C10.8315 22.0607 11.1146 21.1811 11.6808 20.5526C12.247 19.9199 13.033 19.6035 14.0386 19.6035C15.0105 19.6035 15.7816 19.9262 16.3521 20.5716C16.9267 21.217 17.214 22.0902 17.214 23.1912ZM11.9217 23.1912C11.9217 24.077 12.0992 24.7519 12.4541 25.2159C12.809 25.6799 13.3309 25.9119 14.0196 25.9119C14.7084 25.9119 15.2302 25.682 15.5852 25.2222C15.9443 24.7582 16.1239 24.0812 16.1239 23.1912C16.1239 22.3096 15.9443 21.641 15.5852 21.1854C15.2302 20.7256 14.7041 20.4957 14.0069 20.4957C13.3182 20.4957 12.7985 20.7214 12.4478 21.1727C12.097 21.6241 11.9217 22.2969 11.9217 23.1912Z" fill="black"/>
<path d="M26.6831 21.818H29.8332V26.3168C29.343 26.4728 28.8444 26.5909 28.3374 26.6711C27.8303 26.7512 27.243 26.7913 26.5754 26.7913C25.1725 26.7913 24.0802 26.3758 23.2985 25.5448C22.5168 24.7096 22.126 23.5411 22.126 22.0394C22.126 21.0777 22.3182 20.2361 22.7028 19.5148C23.0915 18.7893 23.6493 18.2367 24.376 17.857C25.1028 17.4732 25.9542 17.2812 26.9303 17.2812C27.9191 17.2812 28.8402 17.4626 29.6937 17.8254L29.2754 18.7745C28.4388 18.4202 27.6338 18.243 26.8606 18.243C25.7324 18.243 24.8514 18.5784 24.2176 19.2491C23.5838 19.9198 23.2669 20.8499 23.2669 22.0394C23.2669 23.2881 23.5711 24.235 24.1795 24.8804C24.7922 25.5258 25.6901 25.8485 26.8733 25.8485C27.5155 25.8485 28.143 25.7747 28.7557 25.6271V22.7797H26.6831V21.818Z" fill="black"/>
<path d="M35.0749 19.6035C35.3833 19.6035 35.6601 19.6288 35.9052 19.6795L35.7594 20.6539C35.4721 20.5906 35.2185 20.5589 34.9988 20.5589C34.4368 20.5589 33.9551 20.7867 33.5537 21.2423C33.1565 21.6979 32.9579 22.2653 32.9579 22.9444V26.6649H31.9058V19.7301H32.7741L32.8945 21.0145H32.9453C33.203 20.5632 33.5136 20.2152 33.877 19.9705C34.2404 19.7258 34.6396 19.6035 35.0749 19.6035Z" fill="black"/>
<path d="M41.5017 26.6649L41.2925 25.6779H41.2418C40.8953 26.1123 40.5488 26.4076 40.2023 26.5637C39.86 26.7156 39.4312 26.7915 38.9157 26.7915C38.2269 26.7915 37.6861 26.6143 37.2931 26.26C36.9044 25.9056 36.71 25.4016 36.71 24.7477C36.71 23.3473 37.8318 22.6133 40.0755 22.5458L41.2544 22.5078V22.0776C41.2544 21.5334 41.1361 21.1327 40.8995 20.8754C40.6671 20.6138 40.2931 20.4831 39.7776 20.4831C39.1987 20.4831 38.5438 20.6602 37.8128 21.0146L37.4896 20.211C37.8318 20.0254 38.2058 19.8799 38.6114 19.7744C39.0213 19.6689 39.4312 19.6162 39.841 19.6162C40.6692 19.6162 41.2819 19.7997 41.6791 20.1667C42.0805 20.5337 42.2812 21.1221 42.2812 21.932V26.6649H41.5017ZM39.1249 25.9246C39.7798 25.9246 40.2932 25.7454 40.665 25.3868C41.0411 25.0283 41.2291 24.5263 41.2291 23.8809V23.2545L40.177 23.2988C39.3404 23.3283 38.7361 23.459 38.3643 23.691C37.9966 23.9188 37.8129 24.2753 37.8129 24.7604C37.8129 25.14 37.9269 25.429 38.1551 25.6272C38.3875 25.8255 38.7108 25.9246 39.1249 25.9246Z" fill="black"/>
<path d="M49.2092 26.6649V22.1788C49.2092 21.6135 49.0803 21.1917 48.8225 20.9133C48.5648 20.6349 48.1613 20.4957 47.612 20.4957C46.8852 20.4957 46.3528 20.6918 46.0148 21.0841C45.6767 21.4764 45.5077 22.1239 45.5077 23.0266V26.6649H44.4556V19.7301H45.3112L45.4823 20.6792H45.5331C45.7486 20.3375 46.0507 20.0739 46.4394 19.8883C46.8282 19.6985 47.2613 19.6035 47.7387 19.6035C48.5754 19.6035 49.205 19.806 49.6275 20.211C50.0501 20.6117 50.2613 21.255 50.2613 22.1408V26.6649H49.2092Z" fill="black"/>
<path d="M57.1442 25.7346H57.0871C56.6012 26.4391 55.8744 26.7913 54.9068 26.7913C53.9983 26.7913 53.2906 26.4813 52.7835 25.8612C52.2807 25.2411 52.0293 24.3595 52.0293 23.2163C52.0293 22.0732 52.2828 21.1852 52.7899 20.5525C53.2969 19.9197 54.0026 19.6034 54.9068 19.6034C55.8491 19.6034 56.5716 19.9451 57.0744 20.6284H57.1568L57.1125 20.1286L57.0872 19.6413V16.8193H58.1393V26.6648H57.2837L57.1442 25.7346ZM55.0399 25.9118C55.7582 25.9118 56.278 25.7178 56.5991 25.3297C56.9245 24.9374 57.0871 24.3068 57.0871 23.4378V23.2163C57.0871 22.2335 56.9224 21.5332 56.5928 21.1156C56.2674 20.6938 55.7456 20.4829 55.0272 20.4829C54.4103 20.4829 53.9371 20.7233 53.6075 21.2042C53.2821 21.6809 53.1195 22.3558 53.1195 23.229C53.1195 24.1148 53.2821 24.7834 53.6075 25.2348C53.9328 25.6861 54.4103 25.9118 55.0399 25.9118Z" fill="black"/>
<path d="M63.3114 26.7914C62.2846 26.7914 61.4734 26.4793 60.8776 25.855C60.286 25.2307 59.9902 24.3638 59.9902 23.2544C59.9902 22.1366 60.2649 21.2486 60.8142 20.5906C61.3677 19.9325 62.1093 19.6035 63.0389 19.6035C63.9093 19.6035 64.5981 19.8904 65.1051 20.4641C65.6122 21.0335 65.8657 21.7865 65.8657 22.7229V23.3873H61.0804C61.1015 24.2014 61.3065 24.8194 61.6952 25.2412C62.0882 25.6631 62.6396 25.874 63.3494 25.874C64.0973 25.874 64.8368 25.7179 65.5678 25.4057V26.3422C65.1959 26.5025 64.8431 26.6164 64.5093 26.6839C64.1797 26.7556 63.7804 26.7914 63.3114 26.7914ZM63.0262 20.483C62.4684 20.483 62.0227 20.6644 61.6889 21.0272C61.3593 21.39 61.1649 21.8919 61.1057 22.5331H64.7375C64.7375 21.8709 64.5896 21.3647 64.2938 21.0145C63.9981 20.6602 63.5755 20.483 63.0262 20.483Z" fill="black"/>
<path d="M75.7785 25.7346H75.7215C75.2355 26.4391 74.5087 26.7913 73.5411 26.7913C72.6326 26.7913 71.9249 26.4813 71.4178 25.8612C70.915 25.2411 70.6636 24.3595 70.6636 23.2163C70.6636 22.0732 70.9171 21.1852 71.4242 20.5525C71.9312 19.9197 72.6368 19.6034 73.5411 19.6034C74.4834 19.6034 75.2059 19.9451 75.7088 20.6284H75.7911L75.7468 20.1286L75.7215 19.6413V16.8193H76.7736V26.6648H75.918L75.7785 25.7346ZM73.6742 25.9118C74.3925 25.9118 74.9122 25.7178 75.2334 25.3297C75.5587 24.9374 75.7215 24.3068 75.7215 23.4378V23.2163C75.7215 22.2335 75.5567 21.5332 75.2271 21.1156C74.9017 20.6938 74.3799 20.4829 73.6615 20.4829C73.0446 20.4829 72.5713 20.7233 72.2418 21.2042C71.9164 21.6809 71.7537 22.3558 71.7537 23.229C71.7537 24.1148 71.9164 24.7834 72.2418 25.2348C72.5671 25.6861 73.0446 25.9118 73.6742 25.9118Z" fill="black"/>
<path d="M85.007 23.1912C85.007 24.3217 84.7218 25.2054 84.1514 25.8423C83.5809 26.4751 82.7929 26.7914 81.7872 26.7914C81.1661 26.7914 80.6147 26.6459 80.133 26.3549C79.6513 26.0638 79.2795 25.6462 79.0175 25.102C78.7555 24.5579 78.6245 23.9209 78.6245 23.1912C78.6245 22.0607 78.9076 21.1811 79.4738 20.5526C80.04 19.9199 80.8259 19.6035 81.8316 19.6035C82.8034 19.6035 83.5746 19.9262 84.145 20.5716C84.7197 21.217 85.007 22.0902 85.007 23.1912ZM79.7147 23.1912C79.7147 24.077 79.8921 24.7519 80.247 25.2159C80.602 25.6799 81.1238 25.9119 81.8126 25.9119C82.5013 25.9119 83.0232 25.682 83.3781 25.2222C83.7373 24.7582 83.9168 24.0812 83.9168 23.1912C83.9168 22.3096 83.7373 21.641 83.3781 21.1854C83.0232 20.7256 82.4971 20.4957 81.7999 20.4957C81.1112 20.4957 80.5915 20.7214 80.2408 21.1727C79.89 21.6241 79.7147 22.2969 79.7147 23.1912Z" fill="black"/>
<path d="M97.6386 26.6647H96.409L91.3448 18.901H91.2941C91.3617 19.8122 91.3955 20.6474 91.3955 21.4066V26.6647H90.4004V17.4141H91.6173L96.6688 25.1461H96.7195C96.7111 25.0323 96.6921 24.6674 96.6625 24.0515C96.633 23.4314 96.6224 22.9885 96.6308 22.7228V17.4141H97.6385L97.6386 26.6647Z" fill="black"/>
<path d="M106.024 23.1912C106.024 24.3217 105.739 25.2054 105.168 25.8423C104.598 26.4751 103.81 26.7914 102.804 26.7914C102.183 26.7914 101.632 26.6459 101.15 26.3549C100.668 26.0638 100.297 25.6462 100.035 25.102C99.7726 24.5579 99.6416 23.9209 99.6416 23.1912C99.6416 22.0607 99.9247 21.1811 100.491 20.5526C101.057 19.9199 101.843 19.6035 102.849 19.6035C103.821 19.6035 104.592 19.9262 105.162 20.5716C105.737 21.217 106.024 22.0902 106.024 23.1912ZM100.732 23.1912C100.732 24.077 100.909 24.7519 101.264 25.2159C101.619 25.6799 102.141 25.9119 102.83 25.9119C103.518 25.9119 104.04 25.682 104.395 25.2222C104.754 24.7582 104.934 24.0812 104.934 23.1912C104.934 22.3096 104.754 21.641 104.395 21.1854C104.04 20.7256 103.514 20.4957 102.817 20.4957C102.128 20.4957 101.609 20.7214 101.258 21.1727C100.907 21.6241 100.732 22.2969 100.732 23.1912Z" fill="black"/>
<path d="M111.057 19.6035C111.365 19.6035 111.642 19.6288 111.887 19.6795L111.741 20.6539C111.454 20.5906 111.2 20.5589 110.981 20.5589C110.419 20.5589 109.937 20.7867 109.536 21.2423C109.138 21.6979 108.94 22.2653 108.94 22.9444V26.6649H107.888V19.7301H108.756L108.876 21.0145H108.927C109.185 20.5632 109.495 20.2152 109.859 19.9705C110.222 19.7258 110.622 19.6035 111.057 19.6035Z" fill="black"/>
<path d="M115.455 25.9248C115.641 25.9248 115.821 25.9121 115.994 25.8868C116.167 25.8573 116.305 25.8277 116.406 25.7982V26.6017C116.292 26.6566 116.123 26.7009 115.899 26.7346C115.679 26.7726 115.481 26.7916 115.303 26.7916C113.959 26.7916 113.288 26.085 113.288 24.6719V20.5464H112.292V20.0402L113.288 19.6037L113.731 18.123H114.34V19.7302H116.355V20.5464H114.34V24.6276C114.34 25.0452 114.439 25.3658 114.638 25.5894C114.836 25.8129 115.109 25.9248 115.455 25.9248Z" fill="black"/>
<path d="M120.735 26.7914C119.708 26.7914 118.897 26.4793 118.301 25.855C117.71 25.2307 117.414 24.3638 117.414 23.2544C117.414 22.1366 117.689 21.2486 118.238 20.5906C118.792 19.9325 119.533 19.6035 120.463 19.6035C121.333 19.6035 122.022 19.8904 122.529 20.4641C123.036 21.0335 123.29 21.7865 123.29 22.7229V23.3873H118.504C118.525 24.2014 118.73 24.8194 119.119 25.2412C119.512 25.6631 120.063 25.874 120.773 25.874C121.521 25.874 122.261 25.7179 122.992 25.4057V26.3422C122.62 26.5025 122.267 26.6164 121.933 26.6839C121.604 26.7556 121.204 26.7914 120.735 26.7914ZM120.45 20.483C119.892 20.483 119.447 20.6644 119.113 21.0272C118.783 21.39 118.589 21.8919 118.53 22.5331H122.161C122.161 21.8709 122.013 21.3647 121.718 21.0145C121.422 20.6602 120.999 20.483 120.45 20.483Z" fill="black"/>
</svg>
